<?xml version="1.0" encoding="UTF-8"?>
<svg version="1.1" xmlns="http://www.w3.org/2000/svg" width="388" height="644">
<path d="M0 0 C0.80953125 0.46535156 1.6190625 0.93070313 2.453125 1.41015625 C6.95404334 4.06399961 11.3550059 6.86257145 15.75 9.6875 C19.41935579 12.03794049 23.08438069 14.08384587 27 16 C31.40544216 18.55710208 35.76145158 21.17430105 40 24 C46.69735918 23.84424746 51.50839235 19.71644083 56.8125 16.0625 C60.47877526 13.69020425 64.27084031 11.65265085 68.11328125 9.58203125 C75.83069683 5.36155735 75.83069683 5.36155735 83.08984375 0.41796875 C95.21113317 -8.58004365 113.19383731 -9.3905422 127.58203125 -7.5390625 C144.42662385 -4.07644975 157.71933901 5.5447669 167.69140625 19.33984375 C176.39566243 32.79980883 179.56163268 49.96161035 176.75390625 65.66015625 C174.44740961 75.87805588 170.53604075 84.13753129 165 93 C163.93366904 94.74766832 162.87094154 96.49754237 161.8125 98.25 C161.36519531 98.97703125 160.91789063 99.7040625 160.45703125 100.453125 C159.26348807 102.53942568 158.17892379 104.62353585 157.1171875 106.77734375 C154.64434733 111.78158058 151.86929648 116.59993782 149.09179688 121.43945312 C148.70701172 122.11556641 148.32222656 122.79167969 147.92578125 123.48828125 C147.57942627 124.09196533 147.23307129 124.69564941 146.8762207 125.31762695 C145.85651671 127.16752394 145.85651671 127.16752394 145 130 C145.88225805 132.21202011 145.88225805 132.21202011 147.31640625 134.53515625 C147.83396484 135.42783203 148.35152344 136.32050781 148.88476562 137.24023438 C149.43841797 138.17158203 149.99207031 139.10292969 150.5625 140.0625 C151.08908203 140.96677734 151.61566406 141.87105469 152.15820312 142.80273438 C154.78872648 147.3071434 157.47122403 151.77804524 160.17578125 156.23828125 C162.86442473 160.71023119 165.2208943 165.25629337 167.51464844 169.94262695 C169.04060155 173.05649869 170.60728387 176.13405437 172.25 179.1875 C179.4860884 193.81495766 178.90778343 209.68926487 174.375 225 C168.57592804 241.16064906 157.04004141 254.33141576 141.5625 261.6875 C126.25569247 268.29490406 108.94134182 268.69888331 93.22265625 262.96484375 C88.63410516 260.97297711 84.33265645 258.48945111 80 256 C78.89269531 255.37738281 77.78539062 254.75476563 76.64453125 254.11328125 C70.77829073 250.8074214 64.98208789 247.40866359 59.25 243.875 C58.19167969 243.2253125 57.13335937 242.575625 56.04296875 241.90625 C54.06641707 240.66805075 52.1089841 239.39859508 50.17578125 238.09375 C45.44562014 234.80864117 45.44562014 234.80864117 39.9375 234.25 C36.81914121 236.10774566 33.82144064 238.07915829 30.83984375 240.1484375 C26.55183419 242.94419614 22.07176855 245.38077469 17.58447266 247.84008789 C14.18824201 249.71391299 11.10413215 251.66868083 8 254 C6.08101705 255.01497688 4.14156465 255.99182301 2.1875 256.9375 C-1.11164383 258.53799021 -4.25840919 260.1585625 -7.38671875 262.078125 C-11.13335168 264.23649457 -14.75767293 265.1217855 -19 265.8125 C-19.73694092 265.9357666 -20.47388184 266.0590332 -21.2331543 266.18603516 C-37.19958044 268.57766312 -53.07951048 265.723798 -66.30859375 256.3671875 C-68.6017902 254.64245627 -70.81078846 252.85458068 -73 251 C-73.60714844 250.48953125 -74.21429688 249.9790625 -74.83984375 249.453125 C-86.36816347 238.89203391 -92.32760513 223.54400122 -93.9375 208.25 C-94.73747808 189.16816982 -86.09781542 173.267391 -76.45703125 157.4453125 C-74.41237144 154.01379228 -72.51940872 150.5141669 -70.6875 146.96484375 C-69.39821506 144.69964173 -68.13239452 142.80409643 -66.5625 140.75390625 C-63.96850929 137.19972594 -62.20480974 134.28129808 -61 130 C-62.02145283 124.03420544 -65.67985335 118.93336598 -69 114 C-69.87619355 112.58407122 -70.75150325 111.16759405 -71.625 109.75 C-72.00914063 109.16734375 -72.39328125 108.5846875 -72.7890625 107.984375 C-74.96256829 104.42263003 -76.69279956 100.62697175 -78.52734375 96.8828125 C-79.77121058 94.44786893 -81.08118937 92.16894185 -82.5625 89.875 C-91.48522467 75.86174651 -96.44624459 60.05442924 -93.15234375 43.4921875 C-89.20610359 25.74565588 -80.06320426 10.66632319 -64.59765625 0.53125 C-44.76096789 -11.16195577 -20.04742192 -11.56330055 0 0 Z " fill="#1FB1E1" transform="translate(152,193)"/>
<path d="M0 0 C2.53091916 2.30016025 4.07369903 4.65267576 5.70703125 7.6484375 C6.45907837 9.02286011 6.45907837 9.02286011 7.22631836 10.42504883 C7.7497583 11.39853271 8.27319824 12.3720166 8.8125 13.375 C9.35076416 14.37362061 9.88902832 15.37224121 10.44360352 16.40112305 C20.25904879 34.73350113 27.15906427 52.0449789 27.25 73.0625 C27.270625 74.22716797 27.29125 75.39183594 27.3125 76.59179688 C27.41416392 99.40263965 15.81755736 117.63678059 4.40112305 136.59667969 C1.57349033 141.44686552 0.6859323 144.24209212 1 150 C1.33 150.99 1.66 151.98 2 153 C9.35864657 153.84443485 12.84035696 152.28559869 18.859375 148.1328125 C42.4247689 132.12944799 70.47520881 122.24126272 99.24316406 126.31787109 C115.76368314 129.70125418 131.89804298 139.94812819 145.40795898 149.64697266 C149.69429906 152.61164145 152.6128368 153.81921582 158 153 C159.81082752 151.922933 159.81082752 151.922933 161 150 C161.33378495 147.11033377 161.33378495 147.11033377 161.1171875 143.8125 C161.08109375 142.56549316 161.045 141.31848633 161.0078125 140.03369141 C160.97349121 139.04577606 160.97349121 139.04577606 160.93847656 138.03790283 C160.31607915 118.05595351 164.2753726 102.43490263 174 85 C174.56332031 83.98164063 175.12664062 82.96328125 175.70703125 81.9140625 C176.69820799 80.12241645 177.6915177 78.33194783 178.6875 76.54296875 C180.45143551 73.1253437 181.82364826 69.60622736 183.140625 65.99609375 C184 64 184 64 186 62 C186.33 62.99 186.66 63.98 187 65 C186.12021484 66.50626953 186.12021484 66.50626953 185.22265625 68.04296875 C184.03049027 70.63768293 183.87551227 71.61965125 184.77685547 74.37353516 C186.21628486 77.10651641 187.78111742 79.7053351 189.4375 82.3125 C189.97310547 83.19873047 190.50871094 84.08496094 191.06054688 84.99804688 C192.68563906 87.67915564 194.34128555 90.33959435 196 93 C199.80467307 99.20147975 203.31643308 105.40840266 206.51464844 111.94262695 C208.04060155 115.05649869 209.60728387 118.13405437 211.25 121.1875 C218.4860884 135.81495766 217.90778343 151.68926487 213.375 167 C207.57592804 183.16064906 196.04004141 196.33141576 180.5625 203.6875 C165.25569247 210.29490406 147.94134182 210.69888331 132.22265625 204.96484375 C127.63410516 202.97297711 123.33265645 200.48945111 119 198 C117.89269531 197.37738281 116.78539062 196.75476563 115.64453125 196.11328125 C109.77829073 192.8074214 103.98208789 189.40866359 98.25 185.875 C97.19167969 185.2253125 96.13335937 184.575625 95.04296875 183.90625 C93.06641707 182.66805075 91.1089841 181.39859508 89.17578125 180.09375 C84.44562014 176.80864117 84.44562014 176.80864117 78.9375 176.25 C75.81914121 178.10774566 72.82144064 180.07915829 69.83984375 182.1484375 C65.55183419 184.94419614 61.07176855 187.38077469 56.58447266 189.84008789 C53.18824201 191.71391299 50.10413215 193.66868083 47 196 C45.08101705 197.01497688 43.14156465 197.99182301 41.1875 198.9375 C37.88835617 200.53799021 34.74159081 202.1585625 31.61328125 204.078125 C27.86664832 206.23649457 24.24232707 207.1217855 20 207.8125 C19.26305908 207.9357666 18.52611816 208.0590332 17.7668457 208.18603516 C1.80041956 210.57766312 -14.07951048 207.723798 -27.30859375 198.3671875 C-29.6017902 196.64245627 -31.81078846 194.85458068 -34 193 C-34.60714844 192.48953125 -35.21429688 191.9790625 -35.83984375 191.453125 C-47.36816347 180.89203391 -53.32760513 165.54400122 -54.9375 150.25 C-55.73747808 131.16816982 -47.09781542 115.267391 -37.45703125 99.4453125 C-35.41828219 96.02371221 -33.54069914 92.52185516 -31.65234375 89.015625 C-29.3784223 84.86558396 -27.01166276 80.77016757 -24.62744141 76.68261719 C-23.15468249 74.13486766 -21.93402561 71.80207682 -21 69 C-20.34 69 -19.68 69 -19 69 C-9.725348 52.05589796 -9.725348 52.05589796 -3 34 C-2.52626953 32.51306641 -2.52626953 32.51306641 -2.04296875 30.99609375 C0.80151539 20.8260888 0.28934452 10.46240104 0 0 Z " fill="#2769D6" transform="translate(113,251)"/>
<path d="M0 0 C2.72216797 1.36352539 2.72216797 1.36352539 5.4921875 3.09765625 C6.51957031 3.7309082 7.54695313 4.36416016 8.60546875 5.01660156 C10.22388672 6.02932129 10.22388672 6.02932129 11.875 7.0625 C37.02350154 22.47069257 58.24721782 30.92480877 87.99609375 25.046875 C97.71256754 22.66102006 106.56873482 19.0194789 115.375 14.3125 C116.37015625 13.79083252 117.3653125 13.26916504 118.390625 12.73168945 C125.2864323 9.06605293 131.75996278 5.05553741 138.0625 0.44921875 C141.83030771 -1.40963319 143.98024397 -0.98679931 148 0 C149.9375 1.0625 149.9375 1.0625 151 3 C151.88126247 10.49492749 149.36692185 14.83433855 145.5 21.125 C144.95408203 22.04788818 144.40816406 22.97077637 143.84570312 23.92163086 C142.24589164 26.62402149 140.62626356 29.31346626 139 32 C133.94219888 40.39709935 129.50871353 48.44048106 127 58 C126.77570313 58.80953125 126.55140625 59.6190625 126.3203125 60.453125 C123.4175929 73.09784873 123.63370915 88.4865628 127 101 C127.31839844 102.26585937 127.63679687 103.53171875 127.96484375 104.8359375 C132.04327517 120.28389091 139.49486139 141.49486139 151 153 C151.57971014 160.07246377 151.57971014 160.07246377 149.4375 163.5 C145.98761395 165.6230068 144.03181942 165.44483464 140 165 C136.87241541 163.51562122 134.09638678 161.58591008 131.25 159.625 C105.99954362 143.02111415 84.14646235 133.72045286 53.5625 139.625 C38.04418181 142.95867674 23.36220548 149.68049001 10.19140625 158.51171875 C9.26146851 159.13373169 9.26146851 159.13373169 8.31274414 159.76831055 C7.14058393 160.56474803 5.97865393 161.37654889 4.82983398 162.20629883 C0.77580126 164.98987547 -2.13608507 165.5209247 -7 165 C-9.4375 163.4375 -9.4375 163.4375 -11 161 C-12.289939 153.56035179 -8.18979887 148.27433927 -4.5 142.0625 C-3.20967417 139.82569668 -1.92190867 137.58741443 -0.63671875 135.34765625 C0.30228271 133.71981201 0.30228271 133.71981201 1.26025391 132.05908203 C13.54783442 110.45321846 19.86272291 87.45745685 13.25 62.5625 C12.54153478 60.36119737 11.78560657 58.17496634 11 56 C10.72720215 55.11948975 10.4544043 54.23897949 10.17333984 53.33178711 C7.85000311 45.92263151 4.81245886 39.25976331 1.125 32.4375 C0.62097656 31.48681641 0.11695312 30.53613281 -0.40234375 29.55664062 C-2.46537215 25.67593118 -4.54667463 21.80880557 -6.69555664 17.97485352 C-7.23817139 17.00346436 -7.78078613 16.0320752 -8.33984375 15.03125 C-8.83347412 14.15919922 -9.32710449 13.28714844 -9.83569336 12.38867188 C-11.48098126 9.01322695 -11.8224916 6.66382623 -11 3 C-7.39114651 -1.24570999 -5.2047542 -1.29536443 0 0 Z " fill="#FCFDFD" transform="translate(124,240)"/>
<path d="M0 0 C2.53091916 2.30016025 4.07369903 4.65267576 5.70703125 7.6484375 C6.45907837 9.02286011 6.45907837 9.02286011 7.22631836 10.42504883 C7.7497583 11.39853271 8.27319824 12.3720166 8.8125 13.375 C9.35076416 14.37362061 9.88902832 15.37224121 10.44360352 16.40112305 C20.25904879 34.73350113 27.15906427 52.0449789 27.25 73.0625 C27.270625 74.22716797 27.29125 75.39183594 27.3125 76.59179688 C27.41416392 99.40263965 15.81755736 117.63678059 4.40112305 136.59667969 C1.57349033 141.44686552 0.6859323 144.24209212 1 150 C1.33 150.99 1.66 151.98 2 153 C6.20270625 153.07504833 10.27167821 153.07653551 14.45703125 152.63671875 C29.89987007 151.087741 44.36003987 153.73249429 57.95703125 161.31640625 C61.02473108 163.08320606 61.02473108 163.08320606 64.52734375 164.4921875 C67.85383878 165.93653742 70.71986502 167.58092868 73.75 169.5625 C74.67296875 170.16191406 75.5959375 170.76132812 76.546875 171.37890625 C78.36727344 172.58187655 80.18449218 173.78966146 82 175 C81.14019531 175.4846875 80.28039062 175.969375 79.39453125 176.46875 C70.40322139 181.55921071 61.51037922 186.78878173 52.83203125 192.40234375 C48.07125318 195.47476341 43.12603187 198.00201677 38.02734375 200.47265625 C34.89290146 202.00124296 34.89290146 202.00124296 31.62890625 204.0703125 C27.8755477 206.23146172 24.24947165 207.12062226 20 207.8125 C19.26305908 207.9357666 18.52611816 208.0590332 17.7668457 208.18603516 C1.80041956 210.57766312 -14.07951048 207.723798 -27.30859375 198.3671875 C-29.6017902 196.64245627 -31.81078846 194.85458068 -34 193 C-34.60714844 192.48953125 -35.21429688 191.9790625 -35.83984375 191.453125 C-47.36816347 180.89203391 -53.32760513 165.54400122 -54.9375 150.25 C-55.73747808 131.16816982 -47.09781542 115.267391 -37.45703125 99.4453125 C-35.41828219 96.02371221 -33.54069914 92.52185516 -31.65234375 89.015625 C-29.3784223 84.86558396 -27.01166276 80.77016757 -24.62744141 76.68261719 C-23.15468249 74.13486766 -21.93402561 71.80207682 -21 69 C-20.34 69 -19.68 69 -19 69 C-9.725348 52.05589796 -9.725348 52.05589796 -3 34 C-2.52626953 32.51306641 -2.52626953 32.51306641 -2.04296875 30.99609375 C0.80151539 20.8260888 0.28934452 10.46240104 0 0 Z " fill="#2E33C7" transform="translate(113,251)"/>
<path d="M0 0 C0.80953125 0.46535156 1.6190625 0.93070313 2.453125 1.41015625 C6.95404334 4.06399961 11.3550059 6.86257145 15.75 9.6875 C19.41405907 12.03559419 23.06666501 14.12698334 27 16 C29.875 17.5625 29.875 17.5625 32 19 C32 19.66 32 20.32 32 21 C32.474375 21.474375 32.94875 21.94875 33.4375 22.4375 C35 24 35 24 36 27 C38.9254644 27.2236068 38.9254644 27.2236068 41 26 C45.04376421 27.79154111 48.782896 30.0258133 52.5625 32.3125 C71.19507792 43.17197793 88.5666557 47.75389688 110 48 C107.86585729 50.2942762 105.75021139 51.88412973 103.04296875 53.453125 C102.26719482 53.90421631 101.4914209 54.35530762 100.69213867 54.82006836 C99.86560791 55.2919458 99.03907715 55.76382324 98.1875 56.25 C97.33454346 56.73799072 96.48158691 57.22598145 95.6027832 57.72875977 C84.06401504 64.2822952 73.0356979 69.97304098 60 73 C59.04996094 73.22558594 58.09992188 73.45117188 57.12109375 73.68359375 C28.14846042 79.5264753 6.74999005 69.26212601 -17.41015625 54.42578125 C-19.27331332 53.28365157 -21.13658106 52.14170238 -23 51 C-23.7206665 50.55430664 -24.44133301 50.10861328 -25.18383789 49.64941406 C-28.22372169 47.82364361 -29.68201869 46.98800071 -33.3125 47.125 C-36.11515599 47.81285116 -36.11515599 47.81285116 -38 50 C-38.21243044 52.73509559 -38.21243044 52.73509559 -38.0546875 55.94140625 C-38.02697266 57.15658936 -37.99925781 58.37177246 -37.97070312 59.6237793 C-37.93912109 60.92355713 -37.90753906 62.22333496 -37.875 63.5625 C-37.54679482 88.23698083 -45.35919793 107.08888593 -58 128 C-60.47060787 127.63469485 -61.67043272 127.41175172 -63.26098633 125.42456055 C-63.61443115 124.75207275 -63.96787598 124.07958496 -64.33203125 123.38671875 C-64.73454102 122.63914307 -65.13705078 121.89156738 -65.55175781 121.12133789 C-65.96780273 120.31817139 -66.38384766 119.51500488 -66.8125 118.6875 C-67.69817505 117.03329493 -68.58489629 115.37964959 -69.47265625 113.7265625 C-70.11871826 112.51081543 -70.11871826 112.51081543 -70.77783203 111.27050781 C-72.36482873 108.32223188 -74.04355657 105.44331095 -75.75 102.5625 C-78.4524136 97.96332192 -81.0777755 93.3329756 -83.59375 88.62890625 C-84.48770657 86.95770411 -85.40225054 85.29723089 -86.34375 83.65234375 C-94.70063833 68.39083122 -95.78141772 52.646931 -91.33325195 36.07910156 C-86.35928704 19.26995202 -74.58599058 5.86840705 -59.30859375 -2.46875 C-40.764824 -11.54279949 -17.74775871 -10.23686083 0 0 Z M34 27 C33.67 27.66 33.34 28.32 33 29 C33.66 29 34.32 29 35 29 C34.67 28.34 34.34 27.68 34 27 Z " fill="#09F3DF" transform="translate(152,193)"/>
<path d="M0 0 C0.66 0.33 1.32 0.66 2 1 C1.401875 1.556875 0.80375 2.11375 0.1875 2.6875 C-2.00530002 5.00560288 -3.39381039 7.25609275 -5 10 C-5.70125 10.845625 -6.4025 11.69125 -7.125 12.5625 C-8.93033858 14.90944016 -9.41843302 16.18909294 -10 19 C-10.66 19.66 -11.32 20.32 -12 21 C-12.99 21 -13.98 21 -15 21 C-14.95875 21.70125 -14.9175 22.4025 -14.875 23.125 C-15.01861605 26.42816926 -15.93581182 28.86655701 -17 32 C-17.73676777 35.32043314 -18.3788173 38.65618675 -19 42 C-19.66 42 -20.32 42 -21 42 C-21 47.28 -21 52.56 -21 58 C-20.34 58 -19.68 58 -19 58 C-18.80664062 59.07121094 -18.61328125 60.14242187 -18.4140625 61.24609375 C-18.15149745 62.64331489 -17.88845175 64.04044578 -17.625 65.4375 C-17.49867187 66.14455078 -17.37234375 66.85160156 -17.2421875 67.58007812 C-16.89377757 69.40052 -16.452957 71.20271648 -16 73 C-15.34 73.33 -14.68 73.66 -14 74 C-12.89467894 75.9443342 -11.86279072 77.93090098 -10.875 79.9375 C-10.33617188 81.01902344 -9.79734375 82.10054688 -9.2421875 83.21484375 C-8 86 -8 86 -8 88 C-7.34 88 -6.68 88 -6 88 C-6 88.66 -6 89.32 -6 90 C-5.01 90 -4.02 90 -3 90 C-3.33 91.98 -3.66 93.96 -4 96 C-3.34 96.33 -2.68 96.66 -2 97 C-2.99 97 -3.98 97 -5 97 C-5.268125 96.51273437 -5.53625 96.02546875 -5.8125 95.5234375 C-6.204375 94.81445312 -6.59625 94.10546875 -7 93.375 C-7.45375 92.54484375 -7.9075 91.7146875 -8.375 90.859375 C-9.51099391 88.86046263 -10.70378165 86.8932466 -11.9375 84.953125 C-21.22939193 69.95939029 -25.45728857 53.46248367 -21.60791016 36.06030273 C-18.03194201 21.36723844 -10.68756149 10.68756149 0 0 Z " fill="#156D89" transform="translate(81,198)"/>
<path d="M0 0 C2.53091916 2.30016025 4.07369903 4.65267576 5.70703125 7.6484375 C6.20855713 8.56520264 6.71008301 9.48196777 7.22680664 10.42651367 C8.01172485 11.8860144 8.01172485 11.8860144 8.8125 13.375 C9.34931396 14.36927002 9.88612793 15.36354004 10.43920898 16.38793945 C16.12056422 26.98537093 21.30347282 37.19678016 24 49 C23.01 49.495 23.01 49.495 22 50 C21.76812988 49.34926514 21.53625977 48.69853027 21.29736328 48.02807617 C20.24412445 45.0796917 19.18463908 42.13358997 18.125 39.1875 C17.76019531 38.16333984 17.39539063 37.13917969 17.01953125 36.08398438 C16.66503906 35.10107422 16.31054688 34.11816406 15.9453125 33.10546875 C15.62062988 32.19949951 15.29594727 31.29353027 14.96142578 30.36010742 C14.00889445 27.79688188 14.00889445 27.79688188 12 25 C11.34 25.99 10.68 26.98 10 28 C9.67 27.67 9.34 27.34 9 27 C9.08937803 25.47480724 9.24537146 23.95318071 9.4375 22.4375 C9.53933594 21.61121094 9.64117187 20.78492188 9.74609375 19.93359375 C9.82988281 19.29550781 9.91367188 18.65742188 10 18 C9.38125 18.474375 8.7625 18.94875 8.125 19.4375 C6 21 6 21 4 22 C3.13190941 23.90448447 2.35556445 25.85114385 1.625 27.8125 C1.19058594 28.9778125 0.75617188 30.143125 0.30859375 31.34375 C-1.54914463 36.53432648 -3.30781388 41.75327768 -5 47 C-5.66 47 -6.32 47 -7 47 C-6.38125 45.2984375 -6.38125 45.2984375 -5.75 43.5625 C-0.92587648 28.72081855 0.54865304 15.59089049 0 0 Z " fill="#254ABA" transform="translate(113,251)"/>
<path d="M0 0 C0.66 0.33 1.32 0.66 2 1 C0.1875 3.5 0.1875 3.5 -2 6 C-2.99 6 -3.98 6 -5 6 C-5.309375 6.61875 -5.61875 7.2375 -5.9375 7.875 C-6.625 9.25 -7.3125 10.625 -8 12 C-10.64 12 -13.28 12 -16 12 C-16 12.66 -16 13.32 -16 14 C-16.99 14 -17.98 14 -19 14 C-19.165 14.61875 -19.33 15.2375 -19.5 15.875 C-21.5972874 18.84615715 -23.67906863 18.75056093 -27.125 19.43359375 C-29.21444205 19.85334956 -29.21444205 19.85334956 -30.4375 22.0625 C-32 24 -32 24 -34.1015625 24.41015625 C-35.71216161 24.55076411 -37.32615253 24.65760257 -38.94140625 24.7265625 C-41.22256182 24.81733182 -41.22256182 24.81733182 -43 27 C-46 25 -46 25 -46.6875 22.375 C-46.790625 21.59125 -46.89375 20.8075 -47 20 C-48.32 19.67 -49.64 19.34 -51 19 C-49.375 18.25 -49.375 18.25 -47 18 C-46.05125 18.66 -45.1025 19.32 -44.125 20 C-41.21453779 22.24491799 -41.21453779 22.24491799 -38.125 22.0625 C-32.91325915 20.29050811 -28.69220809 17.16574335 -24.1875 14.0625 C-20.52462209 11.69240253 -16.73990274 9.65448286 -12.89453125 7.59765625 C-9.17005418 5.54190575 -5.58114276 3.29260154 -1.99609375 1.00390625 C-1.33738281 0.67261719 -0.67867187 0.34132812 0 0 Z M-47 25 C-46.67 25.66 -46.34 26.32 -46 27 C-46.66 26.67 -47.32 26.34 -48 26 C-47.67 25.67 -47.34 25.34 -47 25 Z " fill="#278FC6" transform="translate(233,195)"/>
<path d="M0 0 C-3.98051831 0.16938376 -7.32643879 0.00049396 -11.1875 -1 C-19.63741868 -3.0187519 -27.7387183 -2.42141015 -36 0 C-37.546875 0.2475 -37.546875 0.2475 -39.125 0.5 C-44.14023655 1.37221505 -48.08754802 2.68946371 -52 6 C-52.66 5.67 -53.32 5.34 -54 5 C-54.99 5 -55.98 5 -57 5 C-52.76952468 -1.34571298 -42.80813264 -2.81019091 -35.6953125 -4.5703125 C-24.57277978 -6.34346989 -9.57788422 -6.38525615 0 0 Z " fill="#268EC0" transform="translate(292,190)"/>
<path d="M0 0 C3.83437781 6.90188005 3.21677007 14.38223214 3.25 22.0625 C3.270625 23.22716797 3.29125 24.39183594 3.3125 25.59179688 C3.36211117 36.72330312 1.09558379 46.45823607 -3.5 56.5625 C-3.79519531 57.24634766 -4.09039062 57.93019531 -4.39453125 58.63476562 C-5.85803356 61.92603404 -7.16255045 64.70754838 -10 67 C-10 65.35 -10 63.7 -10 62 C-9.34 62 -8.68 62 -8 62 C-8.20625 61.05125 -8.4125 60.1025 -8.625 59.125 C-8.74875 58.09375 -8.8725 57.0625 -9 56 C-8.34 55.34 -7.68 54.68 -7 54 C-6.01 54.33 -5.02 54.66 -4 55 C-4.0928125 54.01 -4.0928125 54.01 -4.1875 53 C-4.0121203 50.19392478 -3.5633878 48.71866251 -2.5 46.1875 C-1.29413264 43.22050543 -0.83614613 40.95158982 -0.9375 37.75 C-1 34 -1 34 -0.015625 32.27734375 C1.50334936 28.87133585 1.24927685 25.47033979 1.1875 21.8125 C1.18685547 21.07580078 1.18621094 20.33910156 1.18554688 19.58007812 C1.47886055 15.99356125 1.47886055 15.99356125 0 13 C-0.07258946 10.81360547 -0.08373783 8.62499611 -0.0625 6.4375 C-0.05347656 5.23996094 -0.04445312 4.04242188 -0.03515625 2.80859375 C-0.02355469 1.88175781 -0.01195312 0.95492188 0 0 Z " fill="#3D3EAB" transform="translate(137,302)"/>
<path d="M0 0 C0.66 0.33 1.32 0.66 2 1 C1.401875 1.556875 0.80375 2.11375 0.1875 2.6875 C-2.00530002 5.00560288 -3.39381039 7.25609275 -5 10 C-5.70125 10.845625 -6.4025 11.69125 -7.125 12.5625 C-8.93033858 14.90944016 -9.41843302 16.18909294 -10 19 C-10.66 19.66 -11.32 20.32 -12 21 C-12.99 21 -13.98 21 -15 21 C-14.95875 21.70125 -14.9175 22.4025 -14.875 23.125 C-15.01861605 26.42816926 -15.93581182 28.86655701 -17 32 C-17.73676777 35.32043314 -18.3788173 38.65618675 -19 42 C-19.66 42 -20.32 42 -21 42 C-21.9993896 29.00793523 -15.7378878 17.82243202 -7.58203125 8.125 C-5.11188378 5.36031984 -2.62206909 2.62206909 0 0 Z " fill="#1998A6" transform="translate(81,198)"/>
<path d="M0 0 C1.92578125 0.42578125 1.92578125 0.42578125 4.3125 1.3125 C13.53863135 4.13784646 23.42664467 3.77070566 33 4 C33 3.34 33 2.68 33 2 C37.62 1.67 42.24 1.34 47 1 C41.30315729 6.69684271 30.35611192 6.62670276 22.78125 7.00390625 C13.7356683 6.99456164 5.43831605 5.14649073 -3 2 C-2.01 1.34 -1.02 0.68 0 0 Z " fill="#2950AE" transform="translate(246,453)"/>
<path d="M0 0 C0.66 0.66 1.32 1.32 2 2 C-0.64 1.67 -3.28 1.34 -6 1 C-6 0.34 -6 -0.32 -6 -1 C-12.95214281 -2.31191997 -19.88444903 -2.11058058 -26.9375 -2.0625 C-28.19369141 -2.05798828 -29.44988281 -2.05347656 -30.74414062 -2.04882812 C-33.82947663 -2.03709681 -36.91471316 -2.020681 -40 -2 C-40.33 -1.34 -40.66 -0.68 -41 0 C-45.29 0 -49.58 0 -54 0 C-54 -0.66 -54 -1.32 -54 -2 C-35.96740236 -6.34022407 -17.30527663 -7.63468086 0 0 Z " fill="#3A6EBF" transform="translate(226,382)"/>
<path d="M0 0 C0 0.33 0 0.66 0 1 C-0.71019287 1.01458252 -1.42038574 1.02916504 -2.15209961 1.04418945 C-5.41440778 1.11931625 -8.67576398 1.21576133 -11.9375 1.3125 C-13.61295898 1.34633789 -13.61295898 1.34633789 -15.32226562 1.38085938 C-24.79878672 1.6865536 -31.89593593 3.67992313 -40.25 8.125 C-43.86682525 10.04823248 -46.93698167 11.3920301 -51 12 C-39.18861786 -1.1753501 -16.55335105 -4.05719389 0 0 Z " fill="#1D93A8" transform="translate(134,186)"/>
<path d="M0 0 C2.125 0.375 2.125 0.375 4 1 C-13.99920105 12.17191789 -31.25372866 22.20343328 -53 23 C-53 22.34 -53 21.68 -53 21 C-52.26394531 20.93941406 -51.52789062 20.87882812 -50.76953125 20.81640625 C-49.30580078 20.69072266 -49.30580078 20.69072266 -47.8125 20.5625 C-46.84957031 20.48128906 -45.88664063 20.40007812 -44.89453125 20.31640625 C-42.21350398 20.02333849 -39.6337014 19.57296246 -37 19 C-37 18.34 -37 17.68 -37 17 C-35.741875 16.95875 -34.48375 16.9175 -33.1875 16.875 C-27.89642291 16.32332372 -24.07123007 14.1076487 -19.578125 11.375 C-17.00025543 10.00013623 -14.87562065 9.41375837 -12 9 C-12 8.34 -12 7.68 -12 7 C-10.68 7 -9.36 7 -8 7 C-8 6.34 -8 5.68 -8 5 C-7.05125 4.54625 -6.1025 4.0925 -5.125 3.625 C-1.99686321 2.19761746 -1.99686321 2.19761746 0 0 Z " fill="#39E5D4" transform="translate(253,244)"/>
<path d="M0 0 C0.66 0.33 1.32 0.66 2 1 C1 4 0 7 -1 10 C-0.2127445 11.81180306 -0.2127445 11.81180306 1 13.5625 C1.66 14.696875 2.32 15.83125 3 17 C2.67 17.66 2.34 18.32 2 19 C1.34 19 0.68 19 0 19 C0 18.01 0 17.02 0 16 C-1.32 16 -2.64 16 -4 16 C-4.556875 17.155 -5.11375 18.31 -5.6875 19.5 C-8.49927426 25.1135777 -11.39351004 30.66055294 -16 35 C-14.49151369 29.84195003 -12.19830535 25.42849926 -9.625 20.75 C-6.31317793 14.62748684 -3.40461706 8.54113094 -1 2 C-0.67 1.34 -0.34 0.68 0 0 Z " fill="#1B72CE" transform="translate(298,313)"/>
<path d="M0 0 C3.47606791 2.69344443 4.40263297 6.3923278 5.625 10.4375 C5.8422876 11.15397705 6.0595752 11.8704541 6.28344727 12.60864258 C9.60684125 24.06981238 10.73000706 37.09181842 5 48 C5.01571045 46.56950317 5.01571045 46.56950317 5.03173828 45.11010742 C5.06794501 41.57108312 5.09090284 38.0320752 5.10986328 34.49291992 C5.11991935 32.96131639 5.133566 31.42973205 5.15087891 29.89819336 C5.17514498 27.69640364 5.18648688 25.49486781 5.1953125 23.29296875 C5.20563507 22.60849167 5.21595764 21.92401459 5.22659302 21.21879578 C5.22745382 17.56938339 5.08567666 16.12851498 3 13 C1.62088755 8.70041412 0.65349566 4.46555364 0 0 Z " fill="#1F3D96" transform="translate(321,368)"/>
<path d="M0 0 C3.29986952 0.64644369 5.70751592 1.8659159 8.5625 3.625 C9.43519531 4.15996094 10.30789062 4.69492188 11.20703125 5.24609375 C14.06659143 7.04181756 16.90927542 8.86215037 19.75 10.6875 C22.59860635 12.51702746 25.34295121 14.1714756 28.375 15.6875 C31.26381058 17.13190529 33.54871401 18.90919724 36 21 C30.25 20.125 30.25 20.125 28 19 C28 18.34 28 17.68 28 17 C26.35 17 24.7 17 23 17 C23 16.34 23 15.68 23 15 C21.35 15 19.7 15 18 15 C18 14.01 18 13.02 18 12 C17.34 12 16.68 12 16 12 C16 11.34 16 10.68 16 10 C15.195625 9.87625 14.39125 9.7525 13.5625 9.625 C12.716875 9.41875 11.87125 9.2125 11 9 C10.67 8.34 10.34 7.68 10 7 C8.02111039 6.27306096 6.02045442 5.60183749 4 5 C4 4.34 4 3.68 4 3 C2.68 2.67 1.36 2.34 0 2 C0 1.34 0 0.68 0 0 Z " fill="#17879A" transform="translate(148,192)"/>
<path d="M0 0 C3.97764914 3.58678188 5.74373864 8.22867084 8 13 C8.43828125 13.89589844 8.8765625 14.79179687 9.328125 15.71484375 C12.32097505 21.99802593 14.38994986 28.23255349 16 35 C15.01 35.495 15.01 35.495 14 36 C13.76812988 35.34926514 13.53625977 34.69853027 13.29736328 34.02807617 C12.24412445 31.0796917 11.18463908 28.13358997 10.125 25.1875 C9.76019531 24.16333984 9.39539063 23.13917969 9.01953125 22.08398438 C8.66503906 21.10107422 8.31054688 20.11816406 7.9453125 19.10546875 C7.45828857 17.74651489 7.45828857 17.74651489 6.96142578 16.36010742 C6.00889445 13.79688188 6.00889445 13.79688188 4 11 C3.01 12.485 3.01 12.485 2 14 C1 13 1 13 0.9375 11.07421875 C0.97896222 9.49088005 1.02062687 7.90754664 1.0625 6.32421875 C1.00156103 4.05805083 0.63512433 2.16835415 0 0 Z " fill="#4246B1" transform="translate(121,265)"/>
<path d="M0 0 C2.1875 1.9375 2.1875 1.9375 4 4 C4.66 4.33 5.32 4.66 6 5 C7.47437139 11.00279781 6.94570137 14.1804586 3.91015625 19.53125 C3.60980469 20.0159375 3.30945313 20.500625 3 21 C2.34 21 1.68 21 1 21 C0.67 21.99 0.34 22.98 0 24 C-0.33 23.34 -0.66 22.68 -1 22 C-0.360625 20.96875 0.27875 19.9375 0.9375 18.875 C3.45071324 14.68923022 3.64468732 11.83515488 3 7 C0.88147457 4.48915505 -0.31445827 4.06688212 -3.5625 3.75 C-6.13687147 3.92463247 -6.13687147 3.92463247 -9 5 C-9 4.34 -9 3.68 -9 3 C-6.09835219 0.20582063 -4.00317818 -0.70055618 0 0 Z " fill="#39AED1" transform="translate(271,236)"/>
<path d="M0 0 C1.32 0 2.64 0 4 0 C4.33 0.66 4.66 1.32 5 2 C6.66321482 2.35015049 8.33034549 2.68197057 10 3 C12 4.33333333 14 5.66666667 16 7 C16 7.66 16 8.32 16 9 C17.03125 9.226875 18.0625 9.45375 19.125 9.6875 C23.34408258 10.86471856 25.81536784 13.04838971 29 16 C22.57831772 16 16.25881774 11.08133637 10.75 8 C10.14760498 7.66806641 9.54520996 7.33613281 8.92456055 6.99414062 C5.45076372 5.02376861 2.67588541 2.96731847 0 0 Z " fill="#1F419D" transform="translate(214,437)"/>
<path d="M0 0 C1.18817968 3.73310433 1.11362739 7.27491645 1.09765625 11.171875 C1.0962413 11.8542926 1.09482635 12.53671021 1.09336853 13.23980713 C1.08779084 15.40991684 1.07524254 17.5799217 1.0625 19.75 C1.05748211 21.22525892 1.05291971 22.70051947 1.04882812 24.17578125 C1.03782875 27.78388798 1.02057953 31.39193375 1 35 C-4.41789768 26.87315348 -3.2337821 16.25902529 -2 7 C-1.48048092 4.55474477 -0.84180766 2.35706146 0 0 Z " fill="#1E1C8B" transform="translate(61,380)"/>
<path d="M0 0 C0.66 0.33 1.32 0.66 2 1 C1.72285156 1.60585938 1.44570313 2.21171875 1.16015625 2.8359375 C-1.15738355 8.19679468 -2.47542766 12.83206663 -2.7265625 18.67578125 C-3 21 -3 21 -4.015625 23.2109375 C-5.44060331 27.24837604 -5.21211021 31.06755226 -5.125 35.3125 C-5.11597656 36.14845703 -5.10695313 36.98441406 -5.09765625 37.84570312 C-5.07420989 39.89725969 -5.03834266 41.94866777 -5 44 C-5.66 43.67 -6.32 43.34 -7 43 C-7.68568428 28.53968049 -7.38478138 12.9751299 0 0 Z " fill="#1977D0" transform="translate(281,348)"/>
<path d="M0 0 C24.32038835 -0.78640777 24.32038835 -0.78640777 33 5 C28.29787408 5.20009046 24.55075906 4.64505162 19.953125 3.51171875 C13.06326502 2.3178409 5.97648366 2.28598315 -1 2 C-0.67 1.34 -0.34 0.68 0 0 Z " fill="#2773AC" transform="translate(259,185)"/>
<path d="M0 0 C-3.50509428 3.22432446 -7.25255875 3.97781379 -11.8125 4.75 C-12.5542749 4.87995361 -13.2960498 5.00990723 -14.06030273 5.14379883 C-21.5069879 6.31018522 -28.53546362 5.90182899 -36 5 C-36 4.67 -36 4.34 -36 4 C-29.4 4 -22.8 4 -16 4 C-16 3.34 -16 2.68 -16 2 C-10.42932723 0.40837921 -5.78898419 -0.20674944 0 0 Z " fill="#211D83" transform="translate(145,454)"/>
<path d="M0 0 C3.0466145 1.01553817 5.31143836 2.20762558 8 4 C12.50850182 3.65554402 12.50850182 3.65554402 16 1 C18.125 1.375 18.125 1.375 20 2 C19.0625 3.9375 19.0625 3.9375 17 6 C14.67008959 6.45659416 12.42958461 6.62533793 10.05859375 6.7265625 C7.77743818 6.81733182 7.77743818 6.81733182 6 9 C3 7 3 7 2.3125 4.375 C2.209375 3.59125 2.10625 2.8075 2 2 C0.68 1.67 -0.64 1.34 -2 1 C-1.34 0.67 -0.68 0.34 0 0 Z M2 7 C2.33 7.66 2.66 8.32 3 9 C2.34 8.67 1.68 8.34 1 8 C1.33 7.67 1.66 7.34 2 7 Z " fill="#1F81AA" transform="translate(184,213)"/>
<path d="M0 0 C0.99 0.66 1.98 1.32 3 2 C3.42284727 6.48218108 3.20129804 10.03766352 1 14 C-0.75 15.69140625 -0.75 15.69140625 -3 17 C-5.578125 16.85546875 -5.578125 16.85546875 -8.25 16.1875 C-9.14203125 15.97480469 -10.0340625 15.76210938 -10.953125 15.54296875 C-11.62859375 15.36378906 -12.3040625 15.18460937 -13 15 C-13.33 14.01 -13.66 13.02 -14 12 C-14.66 12 -15.32 12 -16 12 C-16 11.34 -16 10.68 -16 10 C-11.125 11.875 -11.125 11.875 -10 13 C-5.39793267 13.49241615 -5.39793267 13.49241615 -1.28515625 11.80859375 C0.44628892 9.37193991 0.30271859 7.76977715 0.1875 4.8125 C0.16042969 3.91144531 0.13335937 3.01039063 0.10546875 2.08203125 C0.07066406 1.39496094 0.03585937 0.70789063 0 0 Z " fill="#3F72BF" transform="translate(274,391)"/>
<path d="M0 0 C2.53253151 7.59759453 -4.39054862 18.28630161 -7.625 25.1875 C-8.02122559 26.03763672 -8.41745117 26.88777344 -8.82568359 27.76367188 C-9.20547363 28.55708984 -9.58526367 29.35050781 -9.9765625 30.16796875 C-10.31768066 30.88235107 -10.65879883 31.5967334 -11.01025391 32.33276367 C-12 34 -12 34 -14 35 C-13.50270588 32.41407058 -12.77534607 30.58813446 -11.5 28.25 C-9.7002028 24.35043941 -9.36721681 21.259715 -9 17 C-8.01 17.33 -7.02 17.66 -6 18 C-5.88785156 17.48953125 -5.77570313 16.9790625 -5.66015625 16.453125 C-4.7717405 13.1517931 -3.60252496 9.96116125 -2.4375 6.75 C-2.08655273 5.77546875 -2.08655273 5.77546875 -1.72851562 4.78125 C-1.15407213 3.18687622 -0.5772707 1.59335233 0 0 Z " fill="#25D7E8" transform="translate(111,279)"/>
<path d="M0 0 C0.66 0 1.32 0 2 0 C0.40799441 5.85014103 -2.55736873 10.70518486 -5.625 15.875 C-6.140625 16.75414062 -6.65625 17.63328125 -7.1875 18.5390625 C-8.45335573 20.6957056 -9.72428407 22.84917988 -11 25 C-12.2077558 21.37673261 -11.54311128 20.35853631 -10 17 C-9.34 17 -8.68 17 -8 17 C-8.309375 16.38125 -8.61875 15.7625 -8.9375 15.125 C-9.625 13.75 -10.3125 12.375 -11 11 C-10.34 11 -9.68 11 -9 11 C-8.67 10.34 -8.34 9.68 -8 9 C-6.68 9.33 -5.36 9.66 -4 10 C-3.896875 9.46375 -3.79375 8.9275 -3.6875 8.375 C-2.81907303 5.37497956 -1.44379704 2.7620465 0 0 Z " fill="#3D3FB2" transform="translate(125,369)"/>
<path d="M0 0 C0.94037109 -0.00773437 1.88074219 -0.01546875 2.84960938 -0.0234375 C3.75130859 -0.02085937 4.65300781 -0.01828125 5.58203125 -0.015625 C6.39518799 -0.01336914 7.20834473 -0.01111328 8.04614258 -0.00878906 C10.1875 0.25 10.1875 0.25 13.1875 2.25 C12.57342285 2.27505615 11.9593457 2.3001123 11.32666016 2.32592773 C8.48847366 2.44345264 5.6504956 2.56545526 2.8125 2.6875 C1.36423828 2.74647461 1.36423828 2.74647461 -0.11328125 2.80664062 C-6.37512312 3.07980822 -12.58347309 3.55323128 -18.8125 4.25 C-18.8125 3.59 -18.8125 2.93 -18.8125 2.25 C-12.42776951 0.3593395 -6.63989697 -0.05575841 0 0 Z " fill="#DAEEFB" transform="translate(196.8125,374.75)"/>
<path d="M0 0 C0.33 0 0.66 0 1 0 C2.96693847 13.02432233 0.61256811 24.77445539 -4 37 C-4.66 36.34 -5.32 35.68 -6 35 C-5.67 34.01 -5.34 33.02 -5 32 C-4.2212765 28.87664161 -3.46940126 25.74740324 -2.71875 22.6171875 C-2 20 -2 20 -1 19 C-0.84379445 17.58672053 -0.74943827 16.1664541 -0.68359375 14.74609375 C-0.64169922 13.89208984 -0.59980469 13.03808594 -0.55664062 12.15820312 C-0.51732422 11.26037109 -0.47800781 10.36253906 -0.4375 9.4375 C-0.39431641 8.53580078 -0.35113281 7.63410156 -0.30664062 6.70507812 C-0.20021858 4.47021515 -0.09820012 2.23523692 0 0 Z " fill="#195893" transform="translate(328,237)"/>
<path d="M0 0 C3.64599311 0.31065326 7.29176234 0.62386424 10.9375 0.9375 C12.46987305 1.06801758 12.46987305 1.06801758 14.03320312 1.20117188 C20.03358814 1.71877697 26.01722953 2.30752083 32 3 C32 3.33 32 3.66 32 4 C9.39923747 4.42156863 9.39923747 4.42156863 2 2 C1.34 1.34 0.68 0.68 0 0 Z " fill="#3DE8DA" transform="translate(168,264)"/>
<path d="M0 0 C0.99 0.33 1.98 0.66 3 1 C3.02485364 5.02017255 3.04293238 9.04031488 3.05493164 13.06054688 C3.05993786 14.4261147 3.06674482 15.79167724 3.07543945 17.15722656 C3.08766831 19.12823118 3.09272866 21.0992761 3.09765625 23.0703125 C3.10289307 24.25383301 3.10812988 25.43735352 3.11352539 26.65673828 C3.00470177 29.86153532 2.60517483 32.85476612 2 36 C1.67 36 1.34 36 1 36 C1.00523682 35.28344238 1.01047363 34.56688477 1.01586914 33.82861328 C1.03660667 30.59408438 1.04964984 27.35956944 1.0625 24.125 C1.07087891 22.99707031 1.07925781 21.86914062 1.08789062 20.70703125 C1.09111328 19.63066406 1.09433594 18.55429687 1.09765625 17.4453125 C1.10289307 16.45031738 1.10812988 15.45532227 1.11352539 14.43017578 C1.1639415 11.99039227 1.1639415 11.99039227 0 10 C-0.06996014 8.29297265 -0.08440154 6.58331997 -0.0625 4.875 C-0.05347656 3.96492187 -0.04445313 3.05484375 -0.03515625 2.1171875 C-0.02355469 1.41851562 -0.01195313 0.71984375 0 0 Z " fill="#29DCEE" transform="translate(111,242)"/>
<path d="M0 0 C0.66 0 1.32 0 2 0 C-0.26166502 8.11538625 -3.76361493 17.17574329 -11 22 C-10.46148009 18.12265667 -9.43874548 16.02404439 -7 13 C-6.3162955 11.67532254 -5.65035814 10.34136367 -5 9 C-3.5 6.25 -3.5 6.25 -2 4 C-1.34 4 -0.68 4 0 4 C0 2.68 0 1.36 0 0 Z " fill="#2043A1" transform="translate(324,417)"/>
<path d="M0 0 C0.66 0 1.32 0 2 0 C6.07022569 4.25376372 8.42206685 8.07618522 9 14 C9.66 14.33 10.32 14.66 11 15 C11 16.65 11 18.3 11 20 C8.04902667 16.46144349 5.58033625 12.84852207 3.25 8.875 C2.63640625 7.84117187 2.0228125 6.80734375 1.390625 5.7421875 C0 3 0 3 0 0 Z " fill="#39AED2" transform="translate(263,372)"/>
<path d="M0 0 C1.86372185 3.7274437 0.18414923 8.16086356 -1 12 C-3.0625 14.375 -3.0625 14.375 -5 16 C-5.7872678 18.1381966 -5.7872678 18.1381966 -6 20 C-6.66 20 -7.32 20 -8 20 C-7.50839669 14.56466759 -6.12206673 10.7970995 -3.4375 6.0625 C-2.79683594 4.91910156 -2.15617187 3.77570313 -1.49609375 2.59765625 C-0.75552734 1.31181641 -0.75552734 1.31181641 0 0 Z " fill="#222192" transform="translate(70,360)"/>
<path d="M0 0 C0.66 0.33 1.32 0.66 2 1 C1.67 1.99 1.34 2.98 1 4 C0.01 4 -0.98 4 -2 4 C-2.33644531 4.96679688 -2.33644531 4.96679688 -2.6796875 5.953125 C-4 8 -4 8 -6.3828125 8.609375 C-7.28773438 8.65578125 -8.19265625 8.7021875 -9.125 8.75 C-10.03507813 8.80671875 -10.94515625 8.8634375 -11.8828125 8.921875 C-12.93082031 8.96054688 -12.93082031 8.96054688 -14 9 C-4.3742591 1.71845893 -4.3742591 1.71845893 0 0 Z " fill="#2682B4" transform="translate(216,205)"/>
<path d="M0 0 C5.24156978 0.51137266 8.64019115 2.28655253 13 5 C13.94875 5.515625 14.8975 6.03125 15.875 6.5625 C18 8 18 8 19 11 C14.60616294 9.40376856 10.71004193 7.21975667 6.6875 4.875 C6.04232422 4.50246094 5.39714844 4.12992188 4.73242188 3.74609375 C3.15324055 2.83367787 1.57638136 1.91724491 0 1 C0 0.67 0 0.34 0 0 Z " fill="#2FE8D6" transform="translate(122,239)"/>
<path d="M0 0 C4.82188432 5.15442807 7 10.99745019 7 18 C6.34 18 5.68 18 5 18 C4.15875684 15.75267898 3.32685168 13.50261215 2.5 11.25 C2.26152344 10.61578125 2.02304687 9.9815625 1.77734375 9.328125 C0.55198242 5.96713393 0 3.63128413 0 0 Z " fill="#2371A9" transform="translate(320,215)"/>
<path d="M0 0 C1.12377697 3.30435084 0.89554742 5.0506862 -0.4375 8.25 C-0.72496094 8.95640625 -1.01242188 9.6628125 -1.30859375 10.390625 C-1.53675781 10.92171875 -1.76492187 11.4528125 -2 12 C-2.66 12 -3.32 12 -4 12 C-4 12.66 -4 13.32 -4 14 C-5.32 14.33 -6.64 14.66 -8 15 C-6.62712658 11.30123909 -4.93644547 8.0485524 -2.875 4.6875 C-2.33617188 3.80449219 -1.79734375 2.92148437 -1.2421875 2.01171875 C-0.83226563 1.34785156 -0.42234375 0.68398438 0 0 Z " fill="#221F8E" transform="translate(86,332)"/>
<path d="M0 0 C0.66 0.33 1.32 0.66 2 1 C1 4 0 7 -1 10 C-0.2127445 11.81180306 -0.2127445 11.81180306 1 13.5625 C1.66 14.696875 2.32 15.83125 3 17 C2.67 17.66 2.34 18.32 2 19 C1.34 19 0.68 19 0 19 C0 18.01 0 17.02 0 16 C-0.66 16 -1.32 16 -2 16 C-3.08294395 9.71892509 -2.90913188 5.81826375 0 0 Z " fill="#1C509A" transform="translate(298,313)"/>
<path d="M0 0 C1.9375 0.6875 1.9375 0.6875 4 2 C4.625 4.5 4.625 4.5 5 7 C6.95216435 8.95216435 8.53199953 9.84826645 11 11 C4.75 11.48076923 4.75 11.48076923 1.5625 9.4375 C-0.5248128 6.18129203 -0.2915423 3.79004984 0 0 Z " fill="#EBEEFA" transform="translate(113,394)"/>
<path d="M0 0 C6.97015755 1.81224096 12.4491401 4.26544303 18 9 C12.25 8.125 12.25 8.125 10 7 C10 6.34 10 5.68 10 5 C8.35 5 6.7 5 5 5 C5 4.34 5 3.68 5 3 C3.35 3 1.7 3 0 3 C0 2.01 0 1.02 0 0 Z " fill="#22CBCC" transform="translate(166,204)"/>
<path d="M0 0 C1.125 3.75 1.125 3.75 0 6 C-0.66 6 -1.32 6 -2 6 C-2.103125 6.5775 -2.20625 7.155 -2.3125 7.75 C-3.10896465 10.35661158 -4.19065277 11.9735311 -6 14 C-6.66 14 -7.32 14 -8 14 C-6.88978068 10.51073926 -5.73011006 7.22953878 -4 4 C-3.67 3.34 -3.34 2.68 -3 2 C-2.34 2 -1.68 2 -1 2 C-0.67 1.34 -0.34 0.68 0 0 Z " fill="#1D2C91" transform="translate(95,318)"/>
<path d="M0 0 C0.33 0.66 0.66 1.32 1 2 C-1.25479622 6.42608146 -3.77730382 10.20182235 -7 14 C-7 11.69 -7 9.38 -7 7 C-6.34 7 -5.68 7 -5 7 C-5 5.68 -5 4.36 -5 3 C-4.01 3 -3.02 3 -2 3 C-2 2.34 -2 1.68 -2 1 C-1.34 0.67 -0.68 0.34 0 0 Z " fill="#2075AA" transform="translate(318,281)"/>
<path d="M0 0 C1.98 0 3.96 0 6 0 C2.75359085 2.560881 -0.66940716 4.62476717 -4.25 6.6875 C-5.32765625 7.31011719 -6.4053125 7.93273437 -7.515625 8.57421875 C-8.33546875 9.04472656 -9.1553125 9.51523437 -10 10 C-10.66 9.34 -11.32 8.68 -12 8 C-11.01 8 -10.02 8 -9 8 C-9 7.34 -9 6.68 -9 6 C-6.09451118 3.95830515 -4.59857954 3 -1 3 C-0.67 2.01 -0.34 1.02 0 0 Z " fill="#E1F1FC" transform="translate(145,388)"/>
<path d="M0 0 C2.475 0.99 2.475 0.99 5 2 C5.33 1.34 5.66 0.68 6 0 C6.99 0 7.98 0 9 0 C8.1875 2.9375 8.1875 2.9375 7 6 C6.01 6.33 5.02 6.66 4 7 C1.49962266 4.82575883 0.56371414 3.26954202 0 0 Z " fill="#22BCCA" transform="translate(88,314)"/>
<path d="M0 0 C3.78004623 3.78004623 6.68374149 9.62360528 7 15 C6.34 15.66 5.68 16.32 5 17 C2.45363601 13.2397529 1.45277783 10.16944482 0.8125 5.6875 C0.65394531 4.61886719 0.49539062 3.55023438 0.33203125 2.44921875 C0.22246094 1.64097656 0.11289062 0.83273437 0 0 Z " fill="#1BECDD" transform="translate(62,259)"/>
<path d="M0 0 C1.051875 0.58007812 1.051875 0.58007812 2.125 1.171875 C7.69832834 4.23114762 13.29206196 7.19987945 19 10 C16.74457325 10.76849965 15.46093824 11.15628879 13.16894531 10.37915039 C12.25773926 9.86856079 12.25773926 9.86856079 11.328125 9.34765625 C10.33232422 8.80141602 10.33232422 8.80141602 9.31640625 8.24414062 C8.63449219 7.85419922 7.95257813 7.46425781 7.25 7.0625 C6.55261719 6.67642578 5.85523438 6.29035156 5.13671875 5.89257812 C3.4183988 4.93926363 1.70836196 3.97104654 0 3 C0 2.01 0 1.02 0 0 Z " fill="#CFFDFD" transform="translate(143,252)"/>
<path d="M0 0 C0.99 0 1.98 0 3 0 C3 3.63 3 7.26 3 11 C2.01 11.495 2.01 11.495 1 12 C-0.80619523 7.53763531 -1.11658501 4.68965706 0 0 Z " fill="#22A4DD" transform="translate(271,376)"/>
<path d="M0 0 C0 0.33 0 0.66 0 1 C-1.98 1 -3.96 1 -6 1 C-6 1.66 -6 2.32 -6 3 C-6.99 3 -7.98 3 -9 3 C-9 5.97 -9 8.94 -9 12 C-11 10 -11 10 -11.4375 6.625 C-11 3 -11 3 -8.875 0.5 C-5.38257852 -1.32213295 -3.72911656 -1.04068369 0 0 Z " fill="#CAFEFC" transform="translate(124,240)"/>
<path d="M0 0 C5.94 0 11.88 0 18 0 C17.01 0.99 16.02 1.98 15 3 C14.34 3 13.68 3 13 3 C13 2.34 13 1.68 13 1 C12.01 1.495 12.01 1.495 11 2 C9.12620395 2.07033769 7.24998898 2.0843022 5.375 2.0625 C4.37210938 2.05347656 3.36921875 2.04445312 2.3359375 2.03515625 C1.56507813 2.02355469 0.79421875 2.01195312 0 2 C0 1.34 0 0.68 0 0 Z " fill="#1FE4E2" transform="translate(244,241)"/>
<path d="M0 0 C3.375 0.25 3.375 0.25 7 1 C8.125 3 8.125 3 9 5 C11.44063441 5.67147918 11.44063441 5.67147918 14 6 C14.99 6.66 15.98 7.32 17 8 C10.80273597 7.60442996 6.11744914 5.52510982 1 2 C0.67 1.34 0.34 0.68 0 0 Z " fill="#201C89" transform="translate(87,449)"/>
<path d="M0 0 C2.63520741 2.40502363 4.40302943 5.0185849 6.25 8.0625 C7.06210937 9.37927734 7.06210937 9.37927734 7.890625 10.72265625 C8.25671875 11.47417969 8.6228125 12.22570312 9 13 C8.67 13.66 8.34 14.32 8 15 C6.68 14.34 5.36 13.68 4 13 C4 11.35 4 9.7 4 8 C3.34 8 2.68 8 2 8 C0.23537317 4.91190305 0 3.76687864 0 0 Z " fill="#1A3B91" transform="translate(301,332)"/>
<path d="M0 0 C1.13732426 3.40401948 0.83989957 5.77456664 0.0625 9.25 C-0.13214844 10.14203125 -0.32679687 11.0340625 -0.52734375 11.953125 C-0.68332031 12.62859375 -0.83929688 13.3040625 -1 14 C-1.66 14 -2.32 14 -3 14 C-3.29341888 8.32723489 -3.00559652 5.00932754 0 0 Z " fill="#1FBBC0" transform="translate(63,226)"/>
<path d="M0 0 C1.45947705 0.06006078 2.91779272 0.1488689 4.375 0.25 C5.59316406 0.31960938 5.59316406 0.31960938 6.8359375 0.390625 C9 1 9 1 10.2890625 3.046875 C10.64097656 4.01367188 10.64097656 4.01367188 11 5 C8 6 8 6 5.95703125 5.0390625 C5.24933594 4.57242187 4.54164063 4.10578125 3.8125 3.625 C3.09707031 3.16351563 2.38164062 2.70203125 1.64453125 2.2265625 C1.10183594 1.82179688 0.55914062 1.41703125 0 1 C0 0.67 0 0.34 0 0 Z " fill="#2048A6" transform="translate(197,427)"/>
<path d="M0 0 C0 0.66 0 1.32 0 2 C-0.99 2 -1.98 2 -3 2 C-3.144375 2.639375 -3.28875 3.27875 -3.4375 3.9375 C-4 6 -4 6 -5 7 C-7.33297433 7.04092937 -9.66705225 7.04241723 -12 7 C-3.55172414 0 -3.55172414 0 0 0 Z " fill="#3B6AC2" transform="translate(137,397)"/>
<path d="M0 0 C3.21811875 0.62286169 6.42292137 1.30003501 9.625 2 C10.75808594 2.2475 10.75808594 2.2475 11.9140625 2.5 C14 3 14 3 17 4 C17 4.66 17 5.32 17 6 C10.84431924 5.06898067 5.39154257 4.20578207 0 1 C0 0.67 0 0.34 0 0 Z " fill="#12BCD7" transform="translate(220,233)"/>
<path d="M0 0 C0.99 0.33 1.98 0.66 3 1 C0.03 3.31 -2.94 5.62 -6 8 C-6.66 7.67 -7.32 7.34 -8 7 C-8.99 7 -9.98 7 -11 7 C-8.4802586 3.22038789 -6.15951505 2.6340952 -2 1 C-1.34 0.67 -0.68 0.34 0 0 Z " fill="#1E6BA6" transform="translate(246,188)"/>
<path d="M0 0 C0.33 0.99 0.66 1.98 1 3 C1.66 3 2.32 3 3 3 C6.34821429 9.96428571 6.34821429 9.96428571 5 14 C3.964031 12.42652824 2.94668268 10.84078454 1.9375 9.25 C1.36902344 8.36828125 0.80054687 7.4865625 0.21484375 6.578125 C-1 4 -1 4 -0.68359375 1.671875 C-0.45800781 1.12015625 -0.23242188 0.5684375 0 0 Z " fill="#1C96A2" transform="translate(82,300)"/>
<path d="M0 0 C4.95 0.99 4.95 0.99 10 2 C10 3.32 10 4.64 10 6 C10.99 6.33 11.98 6.66 13 7 C12.01 7.495 12.01 7.495 11 8 C8.3984375 6.6015625 8.3984375 6.6015625 5.375 4.625 C4.37210938 3.97789062 3.36921875 3.33078125 2.3359375 2.6640625 C1.56507813 2.11492187 0.79421875 1.56578125 0 1 C0 0.67 0 0.34 0 0 Z " fill="#33E8D6" transform="translate(141,250)"/>
<path d="M0 0 C3.69876091 1.37287342 6.9514476 3.06355453 10.3125 5.125 C11.19550781 5.66382813 12.07851562 6.20265625 12.98828125 6.7578125 C13.65214844 7.16773438 14.31601563 7.57765625 15 8 C12 9 12 9 9.08203125 7.78515625 C7.46361328 6.93244141 7.46361328 6.93244141 5.8125 6.0625 C4.72582031 5.49660156 3.63914062 4.93070313 2.51953125 4.34765625 C1.68808594 3.90292969 0.85664062 3.45820313 0 3 C0 2.01 0 1.02 0 0 Z " fill="#C8FDFB" transform="translate(124,241)"/>
<path d="M0 0 C1 3 1 3 -0.14453125 5.62890625 C-0.97017578 7.08103516 -0.97017578 7.08103516 -1.8125 8.5625 C-2.62654297 10.01849609 -2.62654297 10.01849609 -3.45703125 11.50390625 C-5 14 -5 14 -7 16 C-6.32829194 12.1936543 -5.27253436 8.64793184 -4 5 C-3.34 5 -2.68 5 -2 5 C-1.34 3.35 -0.68 1.7 0 0 Z " fill="#2AA5E4" transform="translate(295,318)"/>
<path d="M0 0 C3.89608498 1.48904175 7.59097018 3.24378713 11.3125 5.125 C12.38113281 5.66382813 13.44976562 6.20265625 14.55078125 6.7578125 C15.76314453 7.37269531 15.76314453 7.37269531 17 8 C14.10225041 9.20681097 13.02427735 9.00903639 10.01953125 7.890625 C8.96121094 7.34921875 7.90289062 6.8078125 6.8125 6.25 C5.74644531 5.71890625 4.68039063 5.1878125 3.58203125 4.640625 C1 3 1 3 0 0 Z " fill="#15E7E6" transform="translate(200,224)"/>
<path d="M0 0 C-3.38583802 3.13107836 -5.71109462 3.33550778 -10.25 3.1875 C-11.86648437 3.14689453 -11.86648437 3.14689453 -13.515625 3.10546875 C-14.33546875 3.07066406 -15.1553125 3.03585937 -16 3 C-16 2.67 -16 2.34 -16 2 C-10.42932723 0.40837921 -5.78898419 -0.20674944 0 0 Z " fill="#262399" transform="translate(145,454)"/>
<path d="M0 0 C1.91302307 3.26613695 2.35674661 5.99445248 2.625 9.75 C2.69976562 10.73484375 2.77453125 11.7196875 2.8515625 12.734375 C2.92503906 13.85585938 2.92503906 13.85585938 3 15 C2.01 14.34 1.02 13.68 0 13 C-0.29296875 9.9609375 -0.29296875 9.9609375 -0.1875 6.375 C-0.16042969 5.18648438 -0.13335937 3.99796875 -0.10546875 2.7734375 C-0.07066406 1.85820312 -0.03585938 0.94296875 0 0 Z " fill="#514FB2" transform="translate(137,302)"/>
<path d="M0 0 C-9.1 7 -9.1 7 -12 7 C-11.67 6.01 -11.34 5.02 -11 4 C-10.01 4 -9.02 4 -8 4 C-8 3.01 -8 2.02 -8 1 C-5.29120665 -0.35439668 -2.99066732 -0.06501451 0 0 Z " fill="#222796" transform="translate(195,425)"/>
<path d="M0 0 C1.625 1.625 1.625 1.625 3 4 C2.20571155 7.89201339 1.09350657 10.46894917 -2 13 C-2 11.35 -2 9.7 -2 8 C-1.34 8 -0.68 8 0 8 C-0.185625 7.05125 -0.37125 6.1025 -0.5625 5.125 C-1 2 -1 2 0 0 Z " fill="#353AB4" transform="translate(129,356)"/>
<path d="M0 0 C3.29078593 2.79716804 5.06305458 6.19528578 7 10 C6.67 10.66 6.34 11.32 6 12 C3.34930567 9.52601863 1.28384156 7.42357749 0 4 C0 2.68 0 1.36 0 0 Z " fill="#1E3A99" transform="translate(310,348)"/>
<path d="M0 0 C10.55808656 0.77904328 10.55808656 0.77904328 15 3 C15 3.33 15 3.66 15 4 C9.1977825 4.36263859 5.36000789 3.25684543 0 1 C0 0.67 0 0.34 0 0 Z " fill="#1D5B93" transform="translate(277,186)"/>
<path d="M0 0 C0.66 0 1.32 0 2 0 C2 0.66 2 1.32 2 2 C2.99 2 3.98 2 5 2 C4.67 3.98 4.34 5.96 4 8 C4.66 8.33 5.32 8.66 6 9 C5.01 9 4.02 9 3 9 C0.50022457 5.66696609 0 4.26696398 0 0 Z " fill="#1AA4AB" transform="translate(73,286)"/>
<path d="M0 0 C1.32 0 2.64 0 4 0 C4 0.66 4 1.32 4 2 C6.64 2.66 9.28 3.32 12 4 C11.67 4.99 11.34 5.98 11 7 C9.68 6.67 8.36 6.34 7 6 C7 5.34 7 4.68 7 4 C4.69 3.34 2.38 2.68 0 2 C0 1.34 0 0.68 0 0 Z " fill="#18E9DB" transform="translate(172,209)"/>
<path d="M0 0 C0.99 0.33 1.98 0.66 3 1 C3 4.96 3 8.92 3 13 C0 10 0 10 -0.29296875 7.51953125 C-0.25816406 6.62621094 -0.22335938 5.73289063 -0.1875 4.8125 C-0.16042969 3.91144531 -0.13335937 3.01039063 -0.10546875 2.08203125 C-0.07066406 1.39496094 -0.03585938 0.70789063 0 0 Z " fill="#34E2D8" transform="translate(111,242)"/>
<path d="M0 0 C2.625 0.9375 2.625 0.9375 5 2 C5 3.32 5 4.64 5 6 C5.66 6.33 6.32 6.66 7 7 C6.67 7.66 6.34 8.32 6 9 C3 7 3 7 2.3125 4.375 C2.209375 3.59125 2.10625 2.8075 2 2 C0.68 1.67 -0.64 1.34 -2 1 C-1.34 0.67 -0.68 0.34 0 0 Z M2 7 C2.33 7.66 2.66 8.32 3 9 C2.34 8.67 1.68 8.34 1 8 C1.33 7.67 1.66 7.34 2 7 Z " fill="#13BAB9" transform="translate(184,213)"/>
<path d="M0 0 C0.66 0.33 1.32 0.66 2 1 C0.375 3.5 0.375 3.5 -2 6 C-5.25 6.3125 -5.25 6.3125 -8 6 C-5.54080489 3.3651481 -3.42227589 1.25483449 0 0 Z " fill="#1F68A4" transform="translate(233,195)"/>
<path d="M0 0 C0 0.66 0 1.32 0 2 C0.99 2.33 1.98 2.66 3 3 C-6.59453303 2.40546697 -6.59453303 2.40546697 -10 -1 C-6.06329512 -2.31223496 -3.87511856 -1.24296256 0 0 Z " fill="#1A3B94" transform="translate(253,455)"/>
<path d="M0 0 C2.11044382 3.16566573 2.75552077 5.51197415 3.625 9.1875 C3.88539063 10.27417969 4.14578125 11.36085938 4.4140625 12.48046875 C4.60742188 13.31191406 4.80078125 14.14335937 5 15 C4.01 14.67 3.02 14.34 2 14 C1.66179834 12.4176994 1.32964061 10.83410625 1 9.25 C0.814375 8.36828125 0.62875 7.4865625 0.4375 6.578125 C0 4 0 4 0 0 Z " fill="#CFF4FC" transform="translate(251,345)"/>
<path d="M0 0 C0.33 0 0.66 0 1 0 C1.1875 2.875 1.1875 2.875 1 6 C0.01 6.66 -0.98 7.32 -2 8 C-2.33 8.99 -2.66 9.98 -3 11 C-3.66 11 -4.32 11 -5 11 C-3.77782954 6.95743617 -2.37245704 3.50711041 0 0 Z " fill="#43AFD1" transform="translate(266,265)"/>
<path d="M0 0 C1.32 0 2.64 0 4 0 C4.66 3.3 5.32 6.6 6 10 C3.25722422 6.80009492 1.3697164 3.99500618 0 0 Z " fill="#E6E8F9" transform="translate(118,258)"/>
<path d="M0 0 C4.29238623 1.65091778 6.8793915 4.73754566 10 8 C9.67 8.66 9.34 9.32 9 10 C1.33257403 5.18223235 1.33257403 5.18223235 0 0 Z " fill="#1A5395" transform="translate(305,198)"/>
<path d="M0 0 C0.66 0.33 1.32 0.66 2 1 C1.02526874 2.66926454 0.04510211 4.33535642 -0.9375 6 C-1.75541016 7.3921875 -1.75541016 7.3921875 -2.58984375 8.8125 C-3.05519531 9.534375 -3.52054687 10.25625 -4 11 C-4.33 11 -4.66 11 -5 11 C-5.40521084 7.45440518 -5.16434127 6.23325857 -3.0625 3.25 C-1 1 -1 1 0 0 Z " fill="#D5F6FC" transform="translate(270,255)"/>
<path d="M0 0 C5.7097955 0.41778991 8.60957142 2.57546571 13 6 C12.01 6.495 12.01 6.495 11 7 C8.3984375 5.78515625 8.3984375 5.78515625 5.375 4.0625 C4.37210938 3.49660156 3.36921875 2.93070313 2.3359375 2.34765625 C1.56507813 1.90292969 0.79421875 1.45820313 0 1 C0 0.67 0 0.34 0 0 Z " fill="#0FC1DA" transform="translate(200,223)"/>
<path d="M0 0 C-3.19990508 2.74277578 -6.00499382 4.6302836 -10 6 C-10 5.01 -10 4.02 -10 3 C-9.01 3 -8.02 3 -7 3 C-7 2.34 -7 1.68 -7 1 C-4.53721199 -0.231394 -2.7204945 -0.07159196 0 0 Z " fill="#241E94" transform="translate(173,438)"/>
<path d="M0 0 C0.66 0 1.32 0 2 0 C3.49821059 3.37097383 4 5.20442119 4 9 C4.66 9.33 5.32 9.66 6 10 C5.01 10 4.02 10 3 10 C0 3.375 0 3.375 0 0 Z " fill="#221E92" transform="translate(62,416)"/>
<path d="M0 0 C-1.43554025 0.50559908 -2.8735202 1.0042749 -4.3125 1.5 C-5.51326172 1.91765625 -5.51326172 1.91765625 -6.73828125 2.34375 C-9 3 -9 3 -12 3 C-12 2.34 -12 1.68 -12 1 C-10.56496445 0.63597631 -9.12683494 0.28413409 -7.6875 -0.0625 C-6.88699219 -0.25972656 -6.08648437 -0.45695312 -5.26171875 -0.66015625 C-3 -1 -3 -1 0 0 Z " fill="#18348C" transform="translate(293,455)"/>
<path d="M0 0 C-0.33 0.99 -0.66 1.98 -1 3 C-2.84765625 3.73046875 -2.84765625 3.73046875 -5.0625 4.1875 C-5.79597656 4.34605469 -6.52945313 4.50460937 -7.28515625 4.66796875 C-8.13400391 4.83232422 -8.13400391 4.83232422 -9 5 C-9 4.34 -9 3.68 -9 3 C-3.375 0 -3.375 0 0 0 Z " fill="#4478C9" transform="translate(160,385)"/>
<path d="M0 0 C3.99455527 0.61454696 6.74466336 2.70646737 10 5 C9.01 5.495 9.01 5.495 8 6 C6.0546875 5.22265625 6.0546875 5.22265625 3.875 4.0625 C3.15054687 3.68222656 2.42609375 3.30195313 1.6796875 2.91015625 C1.12539063 2.60980469 0.57109375 2.30945313 0 2 C0 1.34 0 0.68 0 0 Z " fill="#1E5D96" transform="translate(295,192)"/>
<path d="M0 0 C0.7425 0.0825 1.485 0.165 2.25 0.25 C2.25 0.91 2.25 1.57 2.25 2.25 C-0.06 2.58 -2.37 2.91 -4.75 3.25 C-4.75 3.91 -4.75 4.57 -4.75 5.25 C-5.41 4.92 -6.07 4.59 -6.75 4.25 C-3.42692308 0.31153846 -3.42692308 0.31153846 0 0 Z " fill="#3332B7" transform="translate(160.75,441.75)"/>
<path d="M0 0 C2.31 1.65 4.62 3.3 7 5 C6.67 6.32 6.34 7.64 6 9 C4.99406757 7.8803014 3.9954151 6.7540588 3 5.625 C2.443125 4.99851562 1.88625 4.37203125 1.3125 3.7265625 C0 2 0 2 0 0 Z " fill="#211D8C" transform="translate(69,431)"/>
<path d="M0 0 C2.4375 0.8125 2.4375 0.8125 5 2 C5.33 2.99 5.66 3.98 6 5 C8.01508358 5.73323796 8.01508358 5.73323796 10 6 C7.69 5.67 5.38 5.34 3 5 C2.67 4.01 2.34 3.02 2 2 C1.34 2 0.68 2 0 2 C0 1.34 0 0.68 0 0 Z " fill="#336CC1" transform="translate(258,401)"/>
<path d="M0 0 C1 2 1 2 0.25 4.9375 C-0.89726872 7.74830836 -1.69701628 9.1157406 -4 11 C-3.48964169 6.6109185 -2.47785723 3.66291938 0 0 Z " fill="#10637A" transform="translate(66,217)"/>
<path d="M0 0 C0.66 0.33 1.32 0.66 2 1 C1.67 1.99 1.34 2.98 1 4 C-1.06640625 4.73046875 -1.06640625 4.73046875 -3.5625 5.1875 C-4.38878906 5.34605469 -5.21507812 5.50460938 -6.06640625 5.66796875 C-7.02353516 5.83232422 -7.02353516 5.83232422 -8 6 C-5.54080489 3.3651481 -3.42227589 1.25483449 0 0 Z " fill="#1A599B" transform="translate(216,205)"/>
<path d="M0 0 C0.66 0.33 1.32 0.66 2 1 C-0.25 3.5625 -0.25 3.5625 -3 6 C-4.32 5.67 -5.64 5.34 -7 5 C-4.69 3.35 -2.38 1.7 0 0 Z " fill="#178290" transform="translate(90,192)"/>
<path d="M0 0 C2.89932357 2.39509338 3.50168276 4.31245243 4 8 C2.68 8 1.36 8 0 8 C0 5.36 0 2.72 0 0 Z " fill="#2347A5" transform="translate(317,360)"/>
<path d="M0 0 C3.99500618 1.3697164 6.80009492 3.25722422 10 6 C6.38238619 5.67112602 4.44334967 5.37334709 1.625 3 C0 1 0 1 0 0 Z " fill="#156780" transform="translate(174,207)"/>
<path d="M0 0 C0.66 0.33 1.32 0.66 2 1 C0.68 2.65 -0.64 4.3 -2 6 C-3.32 5.67 -4.64 5.34 -6 5 C-5.34 5 -4.68 5 -4 5 C-3.67 4.01 -3.34 3.02 -3 2 C-2.01 1.34 -1.02 0.68 0 0 Z " fill="#2FA8DA" transform="translate(238,193)"/>
<path d="M0 0 C4.21912747 0.4794463 6.79663178 1.16625119 10 4 C7.36 3.67 4.72 3.34 2 3 C2 2.34 2 1.68 2 1 C1.34 0.67 0.68 0.34 0 0 Z " fill="#18798F" transform="translate(136,187)"/>
<path d="" fill="#000000" transform="translate(0,0)"/>
<path d="" fill="#000000" transform="translate(0,0)"/>
<path d="" fill="#000000" transform="translate(0,0)"/>
<path d="" fill="#000000" transform="translate(0,0)"/>
<path d="" fill="#000000" transform="translate(0,0)"/>
<path d="" fill="#000000" transform="translate(0,0)"/>
<path d="" fill="#000000" transform="translate(0,0)"/>
<path d="" fill="#000000" transform="translate(0,0)"/>
<path d="" fill="#000000" transform="translate(0,0)"/>
<path d="" fill="#000000" transform="translate(0,0)"/>
<path d="" fill="#000000" transform="translate(0,0)"/>
<path d="" fill="#000000" transform="translate(0,0)"/>
<path d="" fill="#000000" transform="translate(0,0)"/>
<path d="" fill="#000000" transform="translate(0,0)"/>
<path d="" fill="#000000" transform="translate(0,0)"/>
<path d="" fill="#000000" transform="translate(0,0)"/>
<path d="" fill="#000000" transform="translate(0,0)"/>
<path d="" fill="#000000" transform="translate(0,0)"/>
<path d="" fill="#000000" transform="translate(0,0)"/>
<path d="" fill="#000000" transform="translate(0,0)"/>
<path d="" fill="#000000" transform="translate(0,0)"/>
<path d="" fill="#000000" transform="translate(0,0)"/>
<path d="" fill="#000000" transform="translate(0,0)"/>
<path d="" fill="#000000" transform="translate(0,0)"/>
<path d="" fill="#000000" transform="translate(0,0)"/>
<path d="" fill="#000000" transform="translate(0,0)"/>
<path d="" fill="#000000" transform="translate(0,0)"/>
<path d="" fill="#000000" transform="translate(0,0)"/>
<path d="" fill="#000000" transform="translate(0,0)"/>
<path d="" fill="#000000" transform="translate(0,0)"/>
<path d="" fill="#000000" transform="translate(0,0)"/>
<path d="" fill="#000000" transform="translate(0,0)"/>
<path d="" fill="#000000" transform="translate(0,0)"/>
<path d="" fill="#000000" transform="translate(0,0)"/>
<path d="" fill="#000000" transform="translate(0,0)"/>
<path d="" fill="#000000" transform="translate(0,0)"/>
<path d="" fill="#000000" transform="translate(0,0)"/>
<path d="" fill="#000000" transform="translate(0,0)"/>
<path d="" fill="#000000" transform="translate(0,0)"/>
<path d="" fill="#000000" transform="translate(0,0)"/>
<path d="" fill="#000000" transform="translate(0,0)"/>
<path d="" fill="#000000" transform="translate(0,0)"/>
<path d="" fill="#000000" transform="translate(0,0)"/>
<path d="" fill="#000000" transform="translate(0,0)"/>
<path d="" fill="#000000" transform="translate(0,0)"/>
<path d="" fill="#000000" transform="translate(0,0)"/>
<path d="" fill="#000000" transform="translate(0,0)"/>
<path d="" fill="#000000" transform="translate(0,0)"/>
<path d="" fill="#000000" transform="translate(0,0)"/>
<path d="" fill="#000000" transform="translate(0,0)"/>
<path d="" fill="#000000" transform="translate(0,0)"/>
<path d="" fill="#000000" transform="translate(0,0)"/>
<path d="" fill="#000000" transform="translate(0,0)"/>
<path d="" fill="#000000" transform="translate(0,0)"/>
<path d="" fill="#000000" transform="translate(0,0)"/>
<path d="" fill="#000000" transform="translate(0,0)"/>
<path d="" fill="#000000" transform="translate(0,0)"/>
<path d="" fill="#000000" transform="translate(0,0)"/>
<path d="" fill="#000000" transform="translate(0,0)"/>
</svg>
